<svg xmlns="http://www.w3.org/2000/svg" viewBox="0 0 200 200" width="200" height="200">
  <defs>
    <linearGradient id="leafGrad" x1="0%" y1="0%" x2="100%" y2="100%">
      <stop offset="0%" style="stop-color:#2ECC71;stop-opacity:1" />
      <stop offset="100%" style="stop-color:#1A9B5A;stop-opacity:1" />
    </linearGradient>
    <linearGradient id="pulseGrad" x1="0%" y1="0%" x2="100%" y2="0%">
      <stop offset="0%" style="stop-color:#1A9B5A;stop-opacity:1" />
      <stop offset="50%" style="stop-color:#2ECC71;stop-opacity:1" />
      <stop offset="100%" style="stop-color:#27AE60;stop-opacity:0.5" />
    </linearGradient>
    <linearGradient id="circleGrad" x1="0%" y1="0%" x2="100%" y2="100%">
      <stop offset="0%" style="stop-color:#F0FAF4;stop-opacity:1" />
      <stop offset="100%" style="stop-color:#E8F8F0;stop-opacity:1" />
    </linearGradient>
  </defs>

  <circle cx="100" cy="100" r="90" fill="url(#circleGrad)" stroke="#2ECC71" stroke-width="2" opacity="0.4"/>

  <path d="M 100 155 Q 100 115 105 95 Q 108 78 100 58"
        stroke="#1A9B5A" stroke-width="5" fill="none" stroke-linecap="round"/>

  <path d="M 102 90 Q 68 60 52 38 Q 70 45 88 62 Q 94 68 98 80"
        fill="url(#leafGrad)" opacity="0.85"/>

  <path d="M 104 70 Q 135 32 155 15 Q 140 42 125 60 Q 115 72 106 78"
        fill="url(#leafGrad)"/>

  <path d="M 101 88 Q 78 64 60 46" stroke="#1A9B5A" stroke-width="1" fill="none" opacity="0.4"/>
  <path d="M 104 70 Q 132 40 148 22" stroke="#1A9B5A" stroke-width="1" fill="none" opacity="0.4"/>

  <path d="M 30 155 L 70 155 L 82 155 L 92 140 L 100 170 L 110 128 L 120 162 L 128 148 L 136 155 L 170 155"
        stroke="url(#pulseGrad)" stroke-width="4" fill="none" stroke-linecap="round" stroke-linejoin="round"/>

  <circle cx="170" cy="155" r="3.5" fill="#2ECC71" opacity="0.4"/>
</svg>
